# xmcd
#
# Track frame offsets:
#	150
#	15367
#	31091
#	48743
#	66779
#	87364
#	104841
#	124478
#	141352
#	159024
#	176823
#	196017
#
# Disc length: 2996 seconds
#
# Revision: 2
# Processed by: cddbd v1.5.1PL0 Copyright (c) Steve Scherf et al.
# Submitted via: dBpowerAMP V4.0
#
DISCID=a10bb20c
DTITLE=Dave Hollister - Real Talk
DYEAR=2003
DGENRE=R&B
TTITLE0=The Big Payback
TTITLE1=Bad When U Broke
TTITLE2=Never Gonna Change
TTITLE3=Good Ole Ghetto
TTITLE4=Real Talk
TTITLE5=Reason With Your Body
TTITLE6=Winning With You (Featuring R-N-LA)
TTITLE7=Karma
TTITLE8=Case Is Closed
TTITLE9=Almost
TTITLE10=I Lied
TTITLE11=Pleased Tonight
EXTD=
EXTT0=
EXTT1=
EXTT2=
EXTT3=
EXTT4=
EXTT5=
EXTT6=
EXTT7=
EXTT8=
EXTT9=
EXTT10=
EXTT11=
PLAYORDER=
